<svg xmlns="http://www.w3.org/2000/svg" xmlns:xlink="http://www.w3.org/1999/xlink" width="500" zoomAndPan="magnify" viewBox="0 0 375 374.999991" height="500" preserveAspectRatio="xMidYMid meet" version="1.0"><defs><g/><clipPath id="b78b3a0eea"><path d="M 78.277344 172.078125 L 298.222656 172.078125 L 298.222656 197.695312 L 78.277344 197.695312 Z M 78.277344 172.078125 " clip-rule="nonzero"/></clipPath></defs><rect x="-37.5" width="450" fill="#ffffff" y="-37.499999" height="449.999989" fill-opacity="1"/><rect x="-37.5" width="450" fill="#e6e6e6" y="-37.499999" height="449.999989" fill-opacity="1"/><path stroke-linecap="butt" transform="matrix(0.00181951, -0.749998, 0.749998, 0.00181951, 187.12366, 259.034016)" fill="none" stroke-linejoin="miter" d="M -0.000303268 0.501789 L 206.099269 0.501788 " stroke="#000000" stroke-width="1" stroke-opacity="1" stroke-miterlimit="4"/><g fill="#000000" fill-opacity="1"><g transform="translate(93.591604, 228.61954)"><g><path d="M 5.527344 -70 C 5.527344 -39.789062 64.84375 -47.621094 64.84375 -19.894531 C 64.84375 -9.671875 54.25 0.183594 40.804688 0.183594 C 18.882812 0.183594 6.816406 -21.738281 6.816406 -21.738281 L 5.894531 -21.738281 L 5.894531 -9.394531 C 12.710938 -4.328125 23.488281 1.84375 35.644531 1.84375 C 56.921875 1.84375 70.1875 -10.867188 70.1875 -23.671875 C 70.1875 -55.910156 11.972656 -46.976562 11.972656 -72.210938 C 11.972656 -82.4375 21.367188 -92.84375 38.5 -92.84375 C 58.210938 -92.84375 63.832031 -77.371094 63.832031 -77.371094 L 64.75 -77.371094 L 64.75 -89.710938 C 57.660156 -92.109375 49.832031 -93.949219 38.5 -93.949219 C 17.222656 -93.949219 5.527344 -82.804688 5.527344 -70 Z M 5.527344 -70 "/></g></g></g><g fill="#000000" fill-opacity="1"><g transform="translate(196.283965, 228.61954)"><g><path d="M 27.632812 0 L 27.632812 -0.921875 C 19.710938 -0.921875 19.160156 -7.460938 19.160156 -25.605469 L 19.160156 -45.226562 C 19.160156 -49.554688 20.816406 -53.332031 25.605469 -53.332031 C 32.144531 -53.332031 39.421875 -45.226562 50.660156 -45.226562 C 57.9375 -45.226562 62.449219 -49.921875 62.449219 -55.355469 L 61.527344 -55.355469 C 61.527344 -52.132812 58.210938 -50.105469 54.710938 -50.105469 C 46.605469 -50.105469 38.960938 -55.816406 29.84375 -55.816406 C 24.316406 -55.816406 20.261719 -52.871094 19.160156 -50.382812 L 19.160156 -66.5 C 19.160156 -84.648438 19.710938 -91.1875 27.632812 -91.1875 L 27.632812 -92.109375 L 2.761719 -92.109375 L 2.761719 -91.1875 C 10.683594 -91.1875 11.238281 -84.648438 11.238281 -66.5 L 11.238281 -25.605469 C 11.238281 -7.460938 10.683594 -0.921875 2.761719 -0.921875 L 2.761719 0 Z M 56.738281 -91.1875 C 64.660156 -91.1875 65.210938 -84.648438 65.210938 -66.5 L 65.210938 -25.605469 C 65.210938 -7.460938 64.660156 -0.921875 56.738281 -0.921875 L 56.738281 0 L 81.605469 0 L 81.605469 -0.921875 C 73.6875 -0.921875 73.132812 -7.460938 73.132812 -25.605469 L 73.132812 -66.5 C 73.132812 -84.648438 73.6875 -91.1875 81.605469 -91.1875 L 81.605469 -92.109375 L 56.738281 -92.109375 Z M 56.738281 -91.1875 "/></g></g></g><g clip-path="url(#b78b3a0eea)"><path fill="#e6e6e6" d="M 78.277344 172.078125 L 298.21875 172.078125 L 298.21875 197.695312 L 78.277344 197.695312 Z M 78.277344 172.078125 " fill-opacity="1" fill-rule="nonzero"/></g><g fill="#000000" fill-opacity="1"><g transform="translate(55.510416, 189.572433)"><g><path d="M 4.46875 0.09375 C 3.707031 0.09375 2.976562 -0.0234375 2.28125 -0.265625 C 1.59375 -0.515625 1.0625 -0.835938 0.6875 -1.234375 L 1.109375 -2.0625 C 1.472656 -1.695312 1.957031 -1.398438 2.5625 -1.171875 C 3.175781 -0.941406 3.8125 -0.828125 4.46875 -0.828125 C 5.375 -0.828125 6.050781 -0.992188 6.5 -1.328125 C 6.957031 -1.660156 7.1875 -2.09375 7.1875 -2.625 C 7.1875 -3.03125 7.0625 -3.351562 6.8125 -3.59375 C 6.570312 -3.84375 6.269531 -4.03125 5.90625 -4.15625 C 5.550781 -4.289062 5.054688 -4.4375 4.421875 -4.59375 C 3.648438 -4.78125 3.035156 -4.960938 2.578125 -5.140625 C 2.128906 -5.328125 1.742188 -5.601562 1.421875 -5.96875 C 1.097656 -6.34375 0.9375 -6.84375 0.9375 -7.46875 C 0.9375 -7.976562 1.070312 -8.441406 1.34375 -8.859375 C 1.613281 -9.285156 2.023438 -9.625 2.578125 -9.875 C 3.140625 -10.132812 3.835938 -10.265625 4.671875 -10.265625 C 5.253906 -10.265625 5.820312 -10.179688 6.375 -10.015625 C 6.9375 -9.859375 7.421875 -9.640625 7.828125 -9.359375 L 7.46875 -8.5 C 7.039062 -8.78125 6.582031 -8.988281 6.09375 -9.125 C 5.613281 -9.269531 5.140625 -9.34375 4.671875 -9.34375 C 3.785156 -9.34375 3.113281 -9.171875 2.65625 -8.828125 C 2.207031 -8.484375 1.984375 -8.039062 1.984375 -7.5 C 1.984375 -7.09375 2.109375 -6.765625 2.359375 -6.515625 C 2.609375 -6.265625 2.914062 -6.070312 3.28125 -5.9375 C 3.65625 -5.8125 4.160156 -5.671875 4.796875 -5.515625 C 5.546875 -5.335938 6.148438 -5.15625 6.609375 -4.96875 C 7.066406 -4.789062 7.453125 -4.519531 7.765625 -4.15625 C 8.085938 -3.800781 8.25 -3.3125 8.25 -2.6875 C 8.25 -2.175781 8.109375 -1.707031 7.828125 -1.28125 C 7.554688 -0.863281 7.132812 -0.53125 6.5625 -0.28125 C 5.988281 -0.03125 5.289062 0.09375 4.46875 0.09375 Z M 4.46875 0.09375 "/></g></g></g><g fill="#000000" fill-opacity="1"><g transform="translate(69.074599, 189.572433)"><g><path d="M 3.625 -9.234375 L 0.0625 -9.234375 L 0.0625 -10.171875 L 8.28125 -10.171875 L 8.28125 -9.234375 L 4.703125 -9.234375 L 4.703125 0 L 3.625 0 Z M 3.625 -9.234375 "/></g></g></g><g fill="#000000" fill-opacity="1"><g transform="translate(82.043484, 189.572433)"><g><path d="M 8.03125 -2.71875 L 2.375 -2.71875 L 1.140625 0 L 0.03125 0 L 4.671875 -10.171875 L 5.734375 -10.171875 L 10.390625 0 L 9.25 0 Z M 7.640625 -3.59375 L 5.203125 -9.046875 L 2.765625 -3.59375 Z M 7.640625 -3.59375 "/></g></g></g><g fill="#000000" fill-opacity="1"><g transform="translate(97.088658, 189.572433)"><g><path d="M 5.140625 -3.515625 L 5.140625 0 L 4.078125 0 L 4.078125 -3.515625 L 0.015625 -10.171875 L 1.15625 -10.171875 L 4.65625 -4.46875 L 8.140625 -10.171875 L 9.21875 -10.171875 Z M 5.140625 -3.515625 "/></g></g></g><g fill="#000000" fill-opacity="1"><g transform="translate(110.943224, 189.572433)"><g><path d="M 10.15625 -10.171875 L 10.15625 0 L 9.09375 0 L 9.09375 -4.6875 L 2.734375 -4.6875 L 2.734375 0 L 1.65625 0 L 1.65625 -10.171875 L 2.734375 -10.171875 L 2.734375 -5.640625 L 9.09375 -5.640625 L 9.09375 -10.171875 Z M 10.15625 -10.171875 "/></g></g></g><g fill="#000000" fill-opacity="1"><g transform="translate(127.382265, 189.572433)"><g><path d="M 8.03125 -2.71875 L 2.375 -2.71875 L 1.140625 0 L 0.03125 0 L 4.671875 -10.171875 L 5.734375 -10.171875 L 10.390625 0 L 9.25 0 Z M 7.640625 -3.59375 L 5.203125 -9.046875 L 2.765625 -3.59375 Z M 7.640625 -3.59375 "/></g></g></g><g fill="#000000" fill-opacity="1"><g transform="translate(142.42744, 189.572433)"><g><path d="M 5.46875 -10.171875 C 6.757812 -10.171875 7.773438 -9.859375 8.515625 -9.234375 C 9.253906 -8.617188 9.625 -7.769531 9.625 -6.6875 C 9.625 -5.601562 9.253906 -4.753906 8.515625 -4.140625 C 7.773438 -3.523438 6.757812 -3.21875 5.46875 -3.21875 L 2.734375 -3.21875 L 2.734375 0 L 1.65625 0 L 1.65625 -10.171875 Z M 5.4375 -4.15625 C 6.445312 -4.15625 7.21875 -4.375 7.75 -4.8125 C 8.28125 -5.257812 8.546875 -5.882812 8.546875 -6.6875 C 8.546875 -7.507812 8.28125 -8.140625 7.75 -8.578125 C 7.21875 -9.015625 6.445312 -9.234375 5.4375 -9.234375 L 2.734375 -9.234375 L 2.734375 -4.15625 Z M 5.4375 -4.15625 "/></g></g></g><g fill="#000000" fill-opacity="1"><g transform="translate(157.487131, 189.572433)"><g><path d="M 5.46875 -10.171875 C 6.757812 -10.171875 7.773438 -9.859375 8.515625 -9.234375 C 9.253906 -8.617188 9.625 -7.769531 9.625 -6.6875 C 9.625 -5.601562 9.253906 -4.753906 8.515625 -4.140625 C 7.773438 -3.523438 6.757812 -3.21875 5.46875 -3.21875 L 2.734375 -3.21875 L 2.734375 0 L 1.65625 0 L 1.65625 -10.171875 Z M 5.4375 -4.15625 C 6.445312 -4.15625 7.21875 -4.375 7.75 -4.8125 C 8.28125 -5.257812 8.546875 -5.882812 8.546875 -6.6875 C 8.546875 -7.507812 8.28125 -8.140625 7.75 -8.578125 C 7.21875 -9.015625 6.445312 -9.234375 5.4375 -9.234375 L 2.734375 -9.234375 L 2.734375 -4.15625 Z M 5.4375 -4.15625 "/></g></g></g><g fill="#000000" fill-opacity="1"><g transform="translate(172.546823, 189.572433)"><g><path d="M 5.140625 -3.515625 L 5.140625 0 L 4.078125 0 L 4.078125 -3.515625 L 0.015625 -10.171875 L 1.15625 -10.171875 L 4.65625 -4.46875 L 8.140625 -10.171875 L 9.21875 -10.171875 Z M 5.140625 -3.515625 "/></g></g></g><g fill="#000000" fill-opacity="1"><g transform="translate(186.401383, 189.572433)"><g/></g></g><g fill="#000000" fill-opacity="1"><g transform="translate(194.840164, 189.572433)"><g><path d="M 4.46875 0.09375 C 3.707031 0.09375 2.976562 -0.0234375 2.28125 -0.265625 C 1.59375 -0.515625 1.0625 -0.835938 0.6875 -1.234375 L 1.109375 -2.0625 C 1.472656 -1.695312 1.957031 -1.398438 2.5625 -1.171875 C 3.175781 -0.941406 3.8125 -0.828125 4.46875 -0.828125 C 5.375 -0.828125 6.050781 -0.992188 6.5 -1.328125 C 6.957031 -1.660156 7.1875 -2.09375 7.1875 -2.625 C 7.1875 -3.03125 7.0625 -3.351562 6.8125 -3.59375 C 6.570312 -3.84375 6.269531 -4.03125 5.90625 -4.15625 C 5.550781 -4.289062 5.054688 -4.4375 4.421875 -4.59375 C 3.648438 -4.78125 3.035156 -4.960938 2.578125 -5.140625 C 2.128906 -5.328125 1.742188 -5.601562 1.421875 -5.96875 C 1.097656 -6.34375 0.9375 -6.84375 0.9375 -7.46875 C 0.9375 -7.976562 1.070312 -8.441406 1.34375 -8.859375 C 1.613281 -9.285156 2.023438 -9.625 2.578125 -9.875 C 3.140625 -10.132812 3.835938 -10.265625 4.671875 -10.265625 C 5.253906 -10.265625 5.820312 -10.179688 6.375 -10.015625 C 6.9375 -9.859375 7.421875 -9.640625 7.828125 -9.359375 L 7.46875 -8.5 C 7.039062 -8.78125 6.582031 -8.988281 6.09375 -9.125 C 5.613281 -9.269531 5.140625 -9.34375 4.671875 -9.34375 C 3.785156 -9.34375 3.113281 -9.171875 2.65625 -8.828125 C 2.207031 -8.484375 1.984375 -8.039062 1.984375 -7.5 C 1.984375 -7.09375 2.109375 -6.765625 2.359375 -6.515625 C 2.609375 -6.265625 2.914062 -6.070312 3.28125 -5.9375 C 3.65625 -5.8125 4.160156 -5.671875 4.796875 -5.515625 C 5.546875 -5.335938 6.148438 -5.15625 6.609375 -4.96875 C 7.066406 -4.789062 7.453125 -4.519531 7.765625 -4.15625 C 8.085938 -3.800781 8.25 -3.3125 8.25 -2.6875 C 8.25 -2.175781 8.109375 -1.707031 7.828125 -1.28125 C 7.554688 -0.863281 7.132812 -0.53125 6.5625 -0.28125 C 5.988281 -0.03125 5.289062 0.09375 4.46875 0.09375 Z M 4.46875 0.09375 "/></g></g></g><g fill="#000000" fill-opacity="1"><g transform="translate(208.404342, 189.572433)"><g><path d="M 6.109375 0.09375 C 5.097656 0.09375 4.179688 -0.128906 3.359375 -0.578125 C 2.546875 -1.035156 1.90625 -1.65625 1.4375 -2.4375 C 0.976562 -3.226562 0.75 -4.109375 0.75 -5.078125 C 0.75 -6.054688 0.976562 -6.9375 1.4375 -7.71875 C 1.90625 -8.507812 2.546875 -9.128906 3.359375 -9.578125 C 4.179688 -10.035156 5.097656 -10.265625 6.109375 -10.265625 C 7.109375 -10.265625 8.015625 -10.039062 8.828125 -9.59375 C 9.640625 -9.144531 10.273438 -8.523438 10.734375 -7.734375 C 11.203125 -6.941406 11.4375 -6.054688 11.4375 -5.078125 C 11.4375 -4.109375 11.203125 -3.226562 10.734375 -2.4375 C 10.273438 -1.644531 9.640625 -1.023438 8.828125 -0.578125 C 8.015625 -0.128906 7.109375 0.09375 6.109375 0.09375 Z M 6.109375 -0.875 C 6.910156 -0.875 7.632812 -1.054688 8.28125 -1.421875 C 8.925781 -1.785156 9.429688 -2.285156 9.796875 -2.921875 C 10.171875 -3.566406 10.359375 -4.285156 10.359375 -5.078125 C 10.359375 -5.878906 10.171875 -6.597656 9.796875 -7.234375 C 9.429688 -7.878906 8.925781 -8.382812 8.28125 -8.75 C 7.632812 -9.113281 6.910156 -9.296875 6.109375 -9.296875 C 5.296875 -9.296875 4.5625 -9.113281 3.90625 -8.75 C 3.257812 -8.382812 2.75 -7.878906 2.375 -7.234375 C 2 -6.597656 1.8125 -5.878906 1.8125 -5.078125 C 1.8125 -4.285156 2 -3.566406 2.375 -2.921875 C 2.75 -2.285156 3.257812 -1.785156 3.90625 -1.421875 C 4.5625 -1.054688 5.296875 -0.875 6.109375 -0.875 Z M 6.109375 -0.875 "/></g></g></g><g fill="#000000" fill-opacity="1"><g transform="translate(225.220884, 189.572433)"><g><path d="M 1.65625 -10.171875 L 2.734375 -10.171875 L 2.734375 -0.9375 L 8.421875 -0.9375 L 8.421875 0 L 1.65625 0 Z M 1.65625 -10.171875 "/></g></g></g><g fill="#000000" fill-opacity="1"><g transform="translate(238.407567, 189.572433)"><g><path d="M 5.75 0.09375 C 4.4375 0.09375 3.410156 -0.28125 2.671875 -1.03125 C 1.929688 -1.789062 1.5625 -2.894531 1.5625 -4.34375 L 1.5625 -10.171875 L 2.640625 -10.171875 L 2.640625 -4.390625 C 2.640625 -3.203125 2.90625 -2.316406 3.4375 -1.734375 C 3.976562 -1.160156 4.75 -0.875 5.75 -0.875 C 6.769531 -0.875 7.546875 -1.160156 8.078125 -1.734375 C 8.609375 -2.316406 8.875 -3.203125 8.875 -4.390625 L 8.875 -10.171875 L 9.921875 -10.171875 L 9.921875 -4.34375 C 9.921875 -2.894531 9.554688 -1.789062 8.828125 -1.03125 C 8.097656 -0.28125 7.070312 0.09375 5.75 0.09375 Z M 5.75 0.09375 "/></g></g></g><g fill="#000000" fill-opacity="1"><g transform="translate(254.541699, 189.572433)"><g><path d="M 3.625 -9.234375 L 0.0625 -9.234375 L 0.0625 -10.171875 L 8.28125 -10.171875 L 8.28125 -9.234375 L 4.703125 -9.234375 L 4.703125 0 L 3.625 0 Z M 3.625 -9.234375 "/></g></g></g><g fill="#000000" fill-opacity="1"><g transform="translate(267.510578, 189.572433)"><g><path d="M 1.65625 -10.171875 L 2.734375 -10.171875 L 2.734375 0 L 1.65625 0 Z M 1.65625 -10.171875 "/></g></g></g><g fill="#000000" fill-opacity="1"><g transform="translate(276.530147, 189.572433)"><g><path d="M 6.109375 0.09375 C 5.097656 0.09375 4.179688 -0.128906 3.359375 -0.578125 C 2.546875 -1.035156 1.90625 -1.65625 1.4375 -2.4375 C 0.976562 -3.226562 0.75 -4.109375 0.75 -5.078125 C 0.75 -6.054688 0.976562 -6.9375 1.4375 -7.71875 C 1.90625 -8.507812 2.546875 -9.128906 3.359375 -9.578125 C 4.179688 -10.035156 5.097656 -10.265625 6.109375 -10.265625 C 7.109375 -10.265625 8.015625 -10.039062 8.828125 -9.59375 C 9.640625 -9.144531 10.273438 -8.523438 10.734375 -7.734375 C 11.203125 -6.941406 11.4375 -6.054688 11.4375 -5.078125 C 11.4375 -4.109375 11.203125 -3.226562 10.734375 -2.4375 C 10.273438 -1.644531 9.640625 -1.023438 8.828125 -0.578125 C 8.015625 -0.128906 7.109375 0.09375 6.109375 0.09375 Z M 6.109375 -0.875 C 6.910156 -0.875 7.632812 -1.054688 8.28125 -1.421875 C 8.925781 -1.785156 9.429688 -2.285156 9.796875 -2.921875 C 10.171875 -3.566406 10.359375 -4.285156 10.359375 -5.078125 C 10.359375 -5.878906 10.171875 -6.597656 9.796875 -7.234375 C 9.429688 -7.878906 8.925781 -8.382812 8.28125 -8.75 C 7.632812 -9.113281 6.910156 -9.296875 6.109375 -9.296875 C 5.296875 -9.296875 4.5625 -9.113281 3.90625 -8.75 C 3.257812 -8.382812 2.75 -7.878906 2.375 -7.234375 C 2 -6.597656 1.8125 -5.878906 1.8125 -5.078125 C 1.8125 -4.285156 2 -3.566406 2.375 -2.921875 C 2.75 -2.285156 3.257812 -1.785156 3.90625 -1.421875 C 4.5625 -1.054688 5.296875 -0.875 6.109375 -0.875 Z M 6.109375 -0.875 "/></g></g></g><g fill="#000000" fill-opacity="1"><g transform="translate(293.346689, 189.572433)"><g><path d="M 10.15625 -10.171875 L 10.15625 0 L 9.265625 0 L 2.734375 -8.25 L 2.734375 0 L 1.65625 0 L 1.65625 -10.171875 L 2.546875 -10.171875 L 9.09375 -1.921875 L 9.09375 -10.171875 Z M 10.15625 -10.171875 "/></g></g></g><g fill="#000000" fill-opacity="1"><g transform="translate(309.785737, 189.572433)"><g><path d="M 4.46875 0.09375 C 3.707031 0.09375 2.976562 -0.0234375 2.28125 -0.265625 C 1.59375 -0.515625 1.0625 -0.835938 0.6875 -1.234375 L 1.109375 -2.0625 C 1.472656 -1.695312 1.957031 -1.398438 2.5625 -1.171875 C 3.175781 -0.941406 3.8125 -0.828125 4.46875 -0.828125 C 5.375 -0.828125 6.050781 -0.992188 6.5 -1.328125 C 6.957031 -1.660156 7.1875 -2.09375 7.1875 -2.625 C 7.1875 -3.03125 7.0625 -3.351562 6.8125 -3.59375 C 6.570312 -3.84375 6.269531 -4.03125 5.90625 -4.15625 C 5.550781 -4.289062 5.054688 -4.4375 4.421875 -4.59375 C 3.648438 -4.78125 3.035156 -4.960938 2.578125 -5.140625 C 2.128906 -5.328125 1.742188 -5.601562 1.421875 -5.96875 C 1.097656 -6.34375 0.9375 -6.84375 0.9375 -7.46875 C 0.9375 -7.976562 1.070312 -8.441406 1.34375 -8.859375 C 1.613281 -9.285156 2.023438 -9.625 2.578125 -9.875 C 3.140625 -10.132812 3.835938 -10.265625 4.671875 -10.265625 C 5.253906 -10.265625 5.820312 -10.179688 6.375 -10.015625 C 6.9375 -9.859375 7.421875 -9.640625 7.828125 -9.359375 L 7.46875 -8.5 C 7.039062 -8.78125 6.582031 -8.988281 6.09375 -9.125 C 5.613281 -9.269531 5.140625 -9.34375 4.671875 -9.34375 C 3.785156 -9.34375 3.113281 -9.171875 2.65625 -8.828125 C 2.207031 -8.484375 1.984375 -8.039062 1.984375 -7.5 C 1.984375 -7.09375 2.109375 -6.765625 2.359375 -6.515625 C 2.609375 -6.265625 2.914062 -6.070312 3.28125 -5.9375 C 3.65625 -5.8125 4.160156 -5.671875 4.796875 -5.515625 C 5.546875 -5.335938 6.148438 -5.15625 6.609375 -4.96875 C 7.066406 -4.789062 7.453125 -4.519531 7.765625 -4.15625 C 8.085938 -3.800781 8.25 -3.3125 8.25 -2.6875 C 8.25 -2.175781 8.109375 -1.707031 7.828125 -1.28125 C 7.554688 -0.863281 7.132812 -0.53125 6.5625 -0.28125 C 5.988281 -0.03125 5.289062 0.09375 4.46875 0.09375 Z M 4.46875 0.09375 "/></g></g></g></svg>